<svg width="189" height="30" viewBox="0 0 189 30" fill="none" xmlns="http://www.w3.org/2000/svg">
<path d="M29.1334 15.278H19.6155C19.5005 15.278 19.4299 15.1499 19.4867 15.0487L23.2518 8.32524L19.3578 1.37252H11.5714L7.67749 8.32524L11.438 15.0408C11.4948 15.1436 11.4242 15.2701 11.3092 15.2701H3.89396L0 22.2228L3.89396 29.1755H11.6803L15.5743 22.2228L11.8138 15.5073C11.757 15.4045 11.8276 15.278 11.9426 15.278H19.0664C19.1201 15.278 19.1692 15.308 19.1953 15.3554L26.9065 28.9636H36.8875L29.1334 15.278Z" fill="white"/>
<path d="M55.6365 20.6052V20.5356H55.0568C54.9203 20.8645 54.681 21.263 54.3406 21.731C54.0001 22.2007 53.4817 22.6039 52.7885 22.9438C52.0953 23.2838 51.1567 23.4546 49.9742 23.4546C48.7918 23.4546 47.7228 23.2379 46.7689 22.8047C45.8134 22.3714 45.0573 21.7437 44.5006 20.923C43.9439 20.1023 43.6648 19.0951 43.6648 17.8981C43.6648 16.7011 43.9424 15.7413 44.5006 14.9443C45.0573 14.1474 45.8242 13.5433 46.8026 13.1338C47.7796 12.7243 48.8945 12.5187 50.1445 12.5187H55.0215V11.464C55.0215 10.5501 54.7485 9.80529 54.2025 9.2313C53.6566 8.65731 52.8038 8.36952 51.6444 8.36952C50.4849 8.36952 49.6491 8.64466 49.0694 9.19651C48.4897 9.74678 48.1093 10.4568 47.9268 11.3233L44.312 10.0931C44.585 9.17912 45.0221 8.34738 45.6248 7.59629C46.2275 6.84678 47.0281 6.24275 48.0296 5.78577C49.0295 5.32879 50.258 5.09951 51.7134 5.09951C53.9188 5.09951 55.6518 5.66876 56.914 6.80409C58.1762 7.941 58.8066 9.58866 58.8066 11.7439V22.9976H55.6166L55.635 20.6036L55.6365 20.6052ZM50.623 20.1482C51.9189 20.1482 52.9756 19.7671 53.7946 19.005C54.6136 18.2428 55.023 17.2182 55.023 15.9279V15.5768H50.3853C49.5433 15.5768 48.8623 15.765 48.3394 16.1397C47.8164 16.5145 47.5557 17.0664 47.5557 17.7921C47.5557 18.5179 47.8287 19.0635 48.3746 19.4983C48.9206 19.9331 49.6706 20.1482 50.626 20.1482H50.623Z" fill="white"/>
<path d="M67.2785 23.2427C65.9826 23.2427 64.8339 22.9438 63.8339 22.3461C62.834 21.7484 62.061 20.904 61.515 19.8146C60.969 18.7235 60.696 17.4538 60.696 15.999V5.59127H64.5839V15.6828C64.5839 17.0901 64.9197 18.1321 65.5899 18.812C66.2602 19.492 67.2095 19.8319 68.4379 19.8319C69.8244 19.8319 70.9209 19.3639 71.7292 18.4246C72.5359 17.487 72.9392 16.1382 72.9392 14.3814V5.59127H76.8271V22.9612H73.0067V20.5356H72.427C72.131 21.1681 71.5911 21.7785 70.8074 22.3635C70.0237 22.9502 68.8474 23.2427 67.2785 23.2427Z" fill="white"/>
<path d="M78.1475 14.3466V13.8185C78.1475 11.9906 78.5003 10.4251 79.2042 9.12377C79.9082 7.82241 80.8529 6.82623 82.0354 6.13522C83.2178 5.44422 84.5137 5.09793 85.9232 5.09793C87.5151 5.09793 88.7252 5.39046 89.5549 5.9771C90.3846 6.56374 90.9919 7.19624 91.3799 7.87617H91.9597V5.59127H95.78V25.2714C95.78 26.4194 95.461 27.3286 94.8245 27.9959C94.1881 28.6632 93.3231 28.9984 92.2327 28.9984H80.9097V25.4817H90.903C91.5624 25.4817 91.8922 25.1291 91.8922 24.427V20.3933H91.3125C91.0625 20.7918 90.7205 21.1966 90.2895 21.6061C89.857 22.0156 89.2896 22.3619 88.5841 22.6434C87.8786 22.9249 86.9921 23.0656 85.9247 23.0656C84.5153 23.0656 83.2193 22.7193 82.0369 22.0283C80.8544 21.3373 79.9113 20.3411 79.2058 19.0397C78.5003 17.7384 78.1491 16.1745 78.1491 14.345L78.1475 14.3466ZM87.0152 19.5157C88.4246 19.5157 89.5948 19.054 90.5272 18.1274C91.4597 17.2008 91.9259 15.9057 91.9259 14.2423V13.8912C91.9259 12.204 91.4658 10.9027 90.5441 9.98871C89.6224 9.07475 88.446 8.61777 87.0136 8.61777C85.5812 8.61777 84.4263 9.07475 83.4831 9.98871C82.5399 10.9027 82.0676 12.204 82.0676 13.8912V14.2423C82.0676 15.9073 82.5384 17.2023 83.4831 18.1274C84.4263 19.054 85.6042 19.5157 87.0152 19.5157Z" fill="white"/>
<path d="M98.0866 22.9612V5.59127H101.941V7.52514H102.52C102.815 6.94008 103.31 6.41827 104.003 5.9597C104.697 5.50273 105.623 5.27345 106.782 5.27345C108.009 5.27345 108.999 5.53119 109.75 6.04667C110.5 6.56216 111.069 7.21837 111.456 8.01532H112.001C112.388 7.21837 112.945 6.56216 113.673 6.04667C114.4 5.53119 115.434 5.27345 116.776 5.27345C117.822 5.27345 118.771 5.50747 119.624 5.9771C120.476 6.44673 121.159 7.13773 121.67 8.05169C122.18 8.96565 122.437 10.1026 122.437 11.4624V22.9596H118.515V11.7423C118.515 10.7351 118.253 9.96657 117.731 9.43844C117.208 8.9103 116.481 8.64782 115.549 8.64782C114.526 8.64782 113.712 8.99411 113.11 9.68511C112.508 10.3761 112.207 11.3676 112.207 12.6563V22.9581H108.319V11.7407C108.319 10.7335 108.058 9.96499 107.535 9.43686C107.013 8.90872 106.286 8.64624 105.353 8.64624C104.307 8.64624 103.488 8.99253 102.898 9.68353C102.306 10.3745 102.011 11.366 102.011 12.6547V22.9565H98.0897L98.0866 22.9612Z" fill="white"/>
<path d="M132.226 23.453C130.543 23.453 129.059 23.083 127.775 22.3445C126.49 21.6061 125.49 20.5641 124.774 19.2153C124.058 17.868 123.7 16.2915 123.7 14.4858V14.0636C123.7 12.2357 124.053 10.6528 124.757 9.31668C125.461 7.98053 126.45 6.94324 127.725 6.2048C128.997 5.46636 130.464 5.09793 132.125 5.09793C133.786 5.09793 135.193 5.46636 136.422 6.2048C137.65 6.94324 138.604 7.98053 139.287 9.31668C139.969 10.6528 140.31 12.2119 140.31 13.994V15.4361H127.657C127.703 16.796 128.169 17.8854 129.056 18.7061C129.942 19.5268 131.034 19.9363 132.33 19.9363C133.626 19.9363 134.546 19.6485 135.161 19.0745C135.775 18.5005 136.241 17.8491 136.56 17.1233L139.801 18.8453C139.482 19.4778 139.021 20.1529 138.42 20.8677C137.818 21.5824 137.015 22.1927 136.016 22.6956C135.016 23.2 133.753 23.4514 132.23 23.4514L132.226 23.453ZM136.318 12.3764C136.227 11.2284 135.801 10.3144 135.039 9.63451C134.276 8.95458 133.293 8.61461 132.088 8.61461C130.882 8.61461 129.836 8.95458 129.086 9.63451C128.336 10.3144 127.87 11.2284 127.688 12.3764H136.318Z" fill="white"/>
<path d="M141.945 22.9612V5.59127H145.799V8.0169H146.378C146.673 7.36069 147.208 6.73926 147.981 6.15262C148.754 5.56756 149.924 5.27345 151.493 5.27345C152.789 5.27345 153.936 5.57863 154.938 6.1874C155.938 6.79776 156.717 7.64057 157.274 8.71897C157.83 9.79738 158.109 11.075 158.109 12.5519V22.9596H154.188V12.8682C154.188 11.4624 153.852 10.4125 153.182 9.72148C152.51 9.03048 151.562 8.68419 150.334 8.68419C148.947 8.68419 147.855 9.15856 147.059 10.1089C146.263 11.0576 145.866 12.4112 145.866 14.1695V22.9596L141.945 22.9612Z" fill="white"/>
<path d="M165.956 22.9612C164.864 22.9612 163.994 22.6276 163.347 21.9587C162.698 21.2899 162.374 20.3822 162.374 19.2342V8.93086H158.622V5.59127H162.374V0H166.296V5.59127H171.139V8.93086H166.296V18.5654C166.296 19.269 166.614 19.6201 167.252 19.6201H170.627V22.9612H165.956Z" fill="white"/>
<path d="M180.108 23.453C178.426 23.453 176.92 23.0956 175.59 22.3809C174.26 21.6662 173.214 20.6463 172.452 19.3212C171.69 17.9977 171.31 16.4086 171.31 14.5569V13.994C171.31 12.1424 171.69 10.5485 172.452 9.21232C173.214 7.87617 174.26 6.85627 175.59 6.15262C176.92 5.44896 178.426 5.09793 180.108 5.09793C181.791 5.09793 183.291 5.44896 184.609 6.15262C185.928 6.85627 186.968 7.87617 187.73 9.21232C188.491 10.5485 188.873 12.1424 188.873 13.994V14.5569C188.873 16.4086 188.493 17.9977 187.73 19.3212C186.968 20.6463 185.928 21.6662 184.609 22.3809C183.291 23.0956 181.791 23.453 180.108 23.453ZM180.108 19.8667C181.541 19.8667 182.711 19.3924 183.62 18.442C184.53 17.4933 184.984 16.1619 184.984 14.451V14.0984C184.984 12.3875 184.528 11.0576 183.62 10.1073C182.711 9.15856 181.541 8.6826 180.108 8.6826C178.676 8.6826 177.504 9.15698 176.596 10.1073C175.687 11.0561 175.231 12.3875 175.231 14.0984V14.451C175.231 16.1619 175.685 17.4917 176.596 18.442C177.506 19.3908 178.676 19.8667 180.108 19.8667Z" fill="white"/>
</svg>
