<svg width="184" height="21" viewBox="0 0 184 21" fill="none" xmlns="http://www.w3.org/2000/svg">
<path d="M165.513 20.2639H158.041V0H174.512C180.229 0 183.399 2.54714 183.399 7.10369C183.399 11.547 180.201 14.0093 174.456 14.0093H165.513V20.2639ZM165.513 4.16033V9.84894H171.994C174.512 9.84894 175.899 8.83008 175.899 6.99048C175.899 5.17918 174.512 4.16033 171.994 4.16033H165.513Z" fill="white"/>
<path d="M155.203 20.2639H147.76V0H155.203V20.2639Z" fill="white"/>
<path d="M136.329 20.2639H127.923L117.905 0H125.631L132.112 14.0376H132.14L138.621 0H146.348L136.329 20.2639Z" fill="white"/>
<path d="M115.582 20.5752C114.846 20.5752 114.337 20.0658 114.337 19.33C114.337 18.6224 114.846 18.0847 115.582 18.0847C116.318 18.0847 116.856 18.6224 116.856 19.33C116.856 20.0658 116.318 20.5752 115.582 20.5752Z" fill="white"/>
<path d="M112.7 20.2639H93.257V0.36792H112.417V1.8962H94.8985V9.19801H111.285V10.698H94.8985V18.7639H112.7V20.2639Z" fill="white"/>
<path d="M80.0399 20.9714C73.5023 20.9714 69.3986 17.5753 69.3986 11.6036V0.36792H71.0684V11.6036C71.0684 16.6696 74.5211 19.4149 80.0682 19.4149C85.6154 19.4149 89.0398 16.6696 89.0398 11.6036V0.36792H90.7096V11.6036C90.7096 17.5753 86.6059 20.9714 80.0399 20.9714Z" fill="white"/>
<path d="M47.693 20.2639H46.0232V0.36792H48.259L65.155 18.5941H65.1833V0.36792H66.8531V20.2639H64.6173L47.7213 2.06601H47.693V20.2639Z" fill="white"/>
<path d="M44.0468 20.2639H24.6036V0.36792H43.7638V1.8962H26.2451V9.19801H42.6317V10.698H26.2451V18.7639H44.0468V20.2639Z" fill="white"/>
<path d="M12.5376 20.2639H10.6414L6.10352e-05 0.36792H1.86796L11.5754 18.5092H11.6037L21.3111 0.36792H23.179L12.5376 20.2639Z" fill="white"/>
<rect x="113.947" y="16.8832" width="3.95749" height="3.95749" rx="1.97874" fill="white"/>
</svg>
